<svg width="40" height="40" viewBox="0 0 40 40" fill="none" xmlns="http://www.w3.org/2000/svg">
<rect width="40" height="40" rx="10" fill="#B73BF3"/>
<path d="M18.9781 18.068L18.9521 20.486H13.7781V28H11.1001L11.0741 11.126L18.9781 11.1L18.9521 13.518H13.8301L13.8041 18.094L18.9781 18.068ZM28.5723 11.1L28.5463 28H26.0503V27.246C25.7036 27.922 24.9929 28.26 23.9183 28.26C22.8436 28.26 21.9249 27.8787 21.1623 27.116C20.3996 26.3533 20.0183 25.4347 20.0183 24.36V19.628C20.0183 18.5533 20.3996 17.6347 21.1623 16.872C21.9249 16.1093 22.8436 15.728 23.9183 15.728H24.5943C25.0796 15.728 25.5129 15.9707 25.8943 16.456L25.8683 11.126L28.5723 11.1ZM25.8683 19.524C25.8683 18.536 25.3483 18.042 24.3083 18.042C23.1816 18.042 22.6183 18.77 22.6183 20.226V23.658C22.6183 25.114 23.1469 25.842 24.2043 25.842C24.6376 25.842 25.0189 25.6947 25.3483 25.4C25.6776 25.1053 25.8423 24.7413 25.8423 24.308L25.8683 19.524Z" fill="white"/>
</svg>
